<svg viewBox="0 0 512 512" width="512" height="512" xmlns="http://www.w3.org/2000/svg">
	<path d="m162.65 281.5 75.898 61.401v98.702l-137-110.6zm-75.099-61.001 43.799 35.5-43.799 35.401zm185.9 122.5 75.898-61.401 61.101 49.502-137 110.6zm-171.9-162 136.9-110.6v98.702l-75.801 61.401zm322.9 39.6v71.001l-43.799-35.5zm-151-51.502v-98.702l136.9 110.6-61.101 49.502zm178.3-5.8-186-150.2c-3.2-2.4-6.4664-3.6-9.7998-3.6-3.3334 0-6.5666 1.2-9.7 3.6l-186 150.2c-5.1334 4.1999-7.7001 10.067-7.7001 17.6v150.2c0 7.5337 2.5667 13.4 7.7001 17.6l186 150.2c3.1334 2.4 6.3667 3.6 9.7 3.6 3.3334 0 6.6-1.2 9.7998-3.6l186-150.2c5.1334-4.1999 7.7001-10.067 7.7001-17.6v-150.2c0-7.5337-2.5667-13.4-7.7001-17.6z" fill="#5f7389"/>
</svg>
